<svg id="mark" xmlns="http://www.w3.org/2000/svg" width="139.18" height="40" viewBox="0 0 139.18 40"><defs><style>.cls-1{fill:#58585b;}</style></defs><title>go</title><polygon id="arrow" class="cls-1" points="99.18 0 109.95 20.23 99.18 40 139.18 20.23 99.18 0"/><g id="Go"><path class="cls-1" d="M32.24,23.37l-1.82.2c-1.23.15-1.67.39-1.67.93v7l3,.3.1,1.48a41.61,41.61,0,0,1-14.57,2.85C6.84,36.12,0,30,0,20.37,0,10.13,8,3.88,17.67,3.88A22.91,22.91,0,0,1,25,5.06L29.29,4V14.81H25.65l-1.92-7a11.88,11.88,0,0,0-6-1.48C11.42,6.29,7.14,12,7.14,19.58c0,8.86,3.74,14.18,10.39,14.18a11,11,0,0,0,4.87-1.08V24.41c0-.5-.3-.69-1.77-.84l-2.07-.2-.15-2h14Z"/><path class="cls-1" d="M54.05,36.12c-9.85,0-16.49-6.4-16.49-15.85S45.19,3.88,54.29,3.88c9.85,0,16.49,6.4,16.49,15.9S63.2,36.12,54.05,36.12Zm0-29.93c-5.22,0-9.41,4.58-9.41,13.49,0,9.11,4.39,14.18,9.65,14.18s9.36-4.63,9.36-13.54C63.65,11.21,59.31,6.19,54.05,6.19Z"/></g></svg>