<?xml version="1.0" encoding="utf-8"?>
<!-- Generator: Adobe Illustrator 20.0.0, SVG Export Plug-In . SVG Version: 6.00 Build 0)  -->
<svg version="1.1" id="Layer_1" xmlns="http://www.w3.org/2000/svg" xmlns:xlink="http://www.w3.org/1999/xlink" x="0px" y="0px"
	 viewBox="0 0 1000 121" style="enable-background:new 0 0 1000 121;" xml:space="preserve">
<style type="text/css">
	.st0{fill:#1E1A34;}
</style>
<g>
	<path class="st0" d="M499.3,14.9c-3.1-7.7-8.9-13.3-17.3-14.6c-9.4-1.5-18.2,2.8-25.3,8.6c-7.3,6-13.3,16-3.9,22.9
		c6.5,4.8,15.9,5.7,23.5,7.8c2.9,0.8,7.1,1.7,8.8,3.3c1.3,1.2-0.1,2.8-2,5.1c-9,9.2-25.9,15.6-32.6,0.5c-2.1-4.8-9.1-0.6-7,4.1
		c3.5,7.9,10.4,12.4,19,13.2c10.1,1,19.9-5.4,26.6-12.3c0.2-0.2,0.4-0.4,0.5-0.6c4.7-5.5,6-12-0.6-16.8c-5.9-4.3-14.6-5.2-21.5-7.1
		c-4.7-1.3-12.2-3.5-11.7-6.5c1.5-5.4,9.5-10.6,14.5-12.7c8.2-3.4,17.6-1.4,21.1,7.3C493.5,21.8,501.3,19.7,499.3,14.9z"/>
	<path class="st0" d="M174.7,73.3c-2.1,0-4.3,2-4.9,4.4c-0.6,2.4,0.6,4.4,2.7,4.4s4.3-2,4.9-4.4C178,75.3,176.8,73.3,174.7,73.3z"/>
	<rect x="170.6" y="87.6" class="st0" width="6.1" height="32.7"/>
	<path class="st0" d="M73.1,63c12.5,7.5,28-0.5,36.7-9.9c3.5-3.8-2.2-9.6-5.7-5.7c-6.3,6.7-16.6,13.4-26,9.1
		C69.5,52.7,68.7,42,70.6,34c2.3-9.7,9.1-18.3,17.8-23.1c8.3-4.6,19.5-3.6,23.5,6c2,4.8,9.8,2.7,7.8-2.2
		C114.5,2.4,102.3-2.4,89.7,1.6C76.3,5.9,66.4,18.7,62.8,31.9C59.7,43.3,62.4,56.6,73.1,63z"/>
	<path class="st0" d="M345.6,0.1c-17.9-1.4-32.8,16.2-37.1,31.8c0,0-8.3,25.2-12.4,37.8c-1.6,5,6.2,7.1,7.8,2.2
		c2.1-6.2,4.1-12.5,6.2-18.7c3.3,6.9,9.6,12.1,18.7,12.8c17.7,1.4,32.5-15.8,36.9-31.3c0.1-0.2,0.1-0.3,0.1-0.5
		c0-0.2,0.1-0.3,0.1-0.5C369.4,18.2,363.1,1.5,345.6,0.1z M358.1,31.9c-3.3,12.2-13.5,24.8-27,25.9c-13.4,1-17.2-13-14.7-23.7
		c0.1-0.2,0.1-0.4,0.1-0.6c3.1-12.1,13.9-24.3,26.9-25.3C356.8,7.1,360.6,21.2,358.1,31.9z"/>
	<path class="st0" d="M167.3,2.4c-10.6-5.6-23-0.6-31.6,6.3c-4.1,3.3,1.7,8.9,5.7,5.7c6.2-5,15.1-8.5,22.7-4.5
		c6.5,3.4,7.8,11.3,7.3,17.9c0,0.2,0,0.4-0.1,0.6c-13-1.8-28.3-1.4-39.7,5.1c-5.6,3.2-9.1,9.6-9.5,15.9c-0.5,7.4,5.6,12.6,11.9,14.9
		c10.3,3.9,20.2,0.9,28.2-5.5c-0.2,0.7-0.5,1.5-0.7,2.2c-1.6,5,6.2,7.1,7.8,2.2c2.8-8.7,9.2-29.8,9.3-30.2c0.5-2.2,0.9-4.3,1.1-6.4
		C180.3,16.9,176,7,167.3,2.4z M169.2,36.8c-5.4,13-19.3,24.9-33.1,19.7c-4.6-1.7-7.2-5.5-5.1-10.3c1.9-4.5,5.7-6.5,10.1-7.9
		c8.8-2.8,18.9-3.2,28.3-2C169.3,36.4,169.2,36.6,169.2,36.8z"/>
	<path class="st0" d="M277.1,0.1c-11.9-1-22.6,6.6-29.6,16.3c-2.6-8.7-9.1-15.5-20-16.3c-17.9-1.4-32.8,16.2-37.1,31.8
		c0,0,0,0.1,0,0.1c-3.1,9.7-6.2,19.4-9.3,29c-1.6,5,6.2,7.1,7.8,2.2c3.1-9.8,9.5-29.7,9.5-29.9c3.5-12,13.6-24.1,26.8-25.1
		c13.5-1,17.2,13.1,14.7,23.7c0,0.1-6.2,19.5-9.2,29.1c-1.6,5,6.2,7.1,7.8,2.2c3.1-9.7,9.4-29.5,9.4-29.7
		c3.5-12,13.6-24.2,26.8-25.2c13.5-1,17.2,13.1,14.7,23.7c0,0-6.2,19.4-9.3,29.1c-1.6,5,6.2,7.1,7.8,2.2c3.1-9.7,9.4-29.6,9.4-29.8
		C300.8,18,294.5,1.5,277.1,0.1z"/>
	<path class="st0" d="M435.3,3c-2.7,8.5-5.4,17-8.1,25.5c-1.7,5.2-3.2,10.2-6.2,14.9c-4.7,7.4-12.9,13.8-21.9,14.5
		c-15.1,1.2-17.3-15.6-13.8-26.6c2.8-8.7,5.5-17.4,8.3-26c1.6-5-6.2-7.1-7.8-2.2c-3,9.4-6,18.8-9,28.2c-4.9,15.5,2.7,33.3,20,34.7
		c18.7,1.5,32.2-16.6,37.2-32.3c3-9.5,6-19,9.1-28.4C444.7,0.1,436.9-2,435.3,3z"/>
	<path class="st0" d="M43.4,47.4c-6.3,6.7-16.6,13.4-26,9.1C8.9,52.7,8.1,42,9.9,34c2.3-9.7,9.1-18.3,17.8-23.1
		c7.6-4.2,17.4-3.7,22.2,3.6c-7.3,5-14.6,9.9-21.9,14.9c-4.3,2.9-0.2,9.9,4.1,7c8.3-5.7,16.7-11.4,25-17.1c1.4-0.9,2.6-2.8,1.9-4.6
		C53.9,2.4,41.7-2.4,29,1.6C15.6,5.9,5.7,18.7,2.1,31.9C-1,43.3,1.8,56.7,12.4,63c12.5,7.5,28-0.5,36.7-9.9
		C52.7,49.3,47,43.6,43.4,47.4z"/>
	<path class="st0" d="M21.5,74.8C7.9,74.8,0,84.7,0,97.9C0,111.5,7.9,121,21.5,121c13.6,0,21.5-9.5,21.5-23.1
		C43,84.7,35.1,74.8,21.5,74.8z M21.5,115.4c-10.3,0-14.7-8.6-14.7-17.5c0-9.1,4.9-17.5,14.7-17.5c9.8-0.1,14.7,8.4,14.7,17.5
		C36.2,106.8,31.8,115.4,21.5,115.4z"/>
	<path class="st0" d="M66.2,86.8c-4.5,0-8.9,2.2-10.7,5.9h-0.1v-5.2h-5.8v32.6h6v-15.1c0-7.9,3.1-13.4,9.9-13.4
		c5.2,0.3,6.9,4,6.9,11.6v16.9h6v-19.4C78.4,92.1,74.7,86.8,66.2,86.8z"/>
	<path class="st0" d="M94.9,110.3V92.5h8.6v-4.9h-8.6v-13l-6,1.5v11.4h-5.2v4.9h5.2v19.1c0,6.5,3.8,9.5,10,9.5
		c1.9,0,3.8-0.5,5.1-0.9V115c-0.9,0.6-2.2,1.1-4.1,1.1C97.2,116.1,94.9,114.1,94.9,110.3z"/>
	<path class="st0" d="M136.5,100.3c0-8.9-3.8-13.5-13.1-13.5c-4.2,0-7.7,1.3-10.7,3.1L113,95c2.4-2,6.1-3.3,9.5-3.3
		c6,0,8.1,2.9,8.1,8.5c-2.4-0.1-4-0.1-6.4-0.1c-6.2,0-15.2,2.6-15.2,10.7c0,7.1,4.9,10.2,12,10.2c5.5,0,8.7-3,10.1-5h0.1v4.2h5.6
		c-0.1-1-0.3-2.7-0.3-6.4V100.3z M130.5,107.6c0,4.9-3.1,8.6-9.1,8.6c-2.8,0-6.1-1.9-6.1-5.3c0-5.8,8.1-6.3,11.3-6.3
		c1.3,0,2.6,0.1,3.8,0.1V107.6z"/>
	<path class="st0" d="M149.9,92.7h-0.1v-5.1h-5.6v32.6h6v-14.8c0-8.2,3.5-13.3,8.9-13.3c1,0,2.2,0.1,3.3,0.6v-5.4
		c-1.3-0.3-2.2-0.4-4-0.4C155,86.8,151.5,89.3,149.9,92.7z"/>
	<path class="st0" d="M199.4,86.8c-10,0-16.6,7.2-16.6,17.1c0,9.3,6.8,17.1,16.6,17.1c9.8,0,16.6-7.7,16.6-17.1
		C215.9,94,209.3,86.8,199.4,86.8z M199.4,116.1c-7.1,0-10.2-6.4-10.2-12.2c0-6.2,3.8-12.2,10.2-12.2c6.4,0,10.2,6,10.2,12.2
		C209.5,109.7,206.4,116.1,199.4,116.1z"/>
</g>
<g>
	<g>
		<path class="st0" d="M830.9,24.7h12.5v3.5h-8v5.5h7.6v3.5h-7.6v9.9h-4.5V24.7z"/>
		<path class="st0" d="M862.3,47.2h-4.1V45h-0.1c-1.3,1.6-3.2,2.6-5.5,2.6c-3.9,0-5.6-2.8-5.6-6.5V30.6h4.3v8.9c0,2,0,4.8,2.8,4.8
			c3.1,0,3.8-3.4,3.8-5.5v-8.1h4.3V47.2z"/>
		<path class="st0" d="M867.2,30.6h4.1v2.3h0.1c1.4-1.9,3.2-2.6,5.5-2.6c3.9,0,5.6,2.8,5.6,6.5v10.5h-4.3v-8.9c0-2,0-4.8-2.8-4.8
			c-3.1,0-3.8,3.4-3.8,5.5v8.1h-4.3V30.6z"/>
		<path class="st0" d="M898.5,45.3L898.5,45.3c-1.4,1.6-3.1,2.3-5.2,2.3c-5.1,0-7-4.2-7-8.7c0-4.6,1.9-8.6,7-8.6
			c2.2,0,3.7,0.7,5,2.3h0.1V23h4.3v24.2h-4.2V45.3z M894.5,44.2c2.9,0,3.8-3,3.8-5.4c0-2.3-1.1-5.3-3.9-5.3c-2.8,0-3.6,3.1-3.6,5.3
			C890.9,41.1,891.7,44.2,894.5,44.2z"/>
		<path class="st0" d="M920.9,46.3c-1.6,0.9-3.4,1.3-5.7,1.3c-5.5,0-8.7-3.2-8.7-8.6c0-4.8,2.5-8.8,7.7-8.8c6.2,0,7.9,4.2,7.9,10
			h-11.5c0.2,2.7,2.1,4.2,4.7,4.2c2.1,0,3.9-0.8,5.5-1.7V46.3z M918,37.3c-0.1-2.1-1.1-3.9-3.5-3.9c-2.4,0-3.6,1.7-3.8,3.9H918z"/>
		<path class="st0" d="M937.1,45.3L937.1,45.3c-1.4,1.6-3.1,2.3-5.2,2.3c-5.1,0-7-4.2-7-8.7c0-4.6,1.9-8.6,7-8.6
			c2.2,0,3.7,0.7,5,2.3h0.1V23h4.3v24.2h-4.2V45.3z M933.1,44.2c2.9,0,3.8-3,3.8-5.4c0-2.3-1.1-5.3-3.9-5.3c-2.8,0-3.6,3.1-3.6,5.3
			C929.5,41.1,930.3,44.2,933.1,44.2z"/>
		<path class="st0" d="M956,24.7h7.9c2.9,0,7.3,0.8,7.3,5.8c0,2.7-1.8,4.5-4.5,5v0.1c3.1,0.3,5.2,2.4,5.2,5.1c0,5.7-5.1,6.5-7.9,6.5
			H956V24.7z M960.6,33.8h1.8c1.9,0,4.3-0.4,4.3-2.7c0-2.6-2.3-2.8-4.4-2.8h-1.7V33.8z M960.6,43.7h2.1c2.1,0,4.6-0.5,4.6-3.1
			c0-2.9-2.4-3.4-4.6-3.4h-2.1V43.7z"/>
		<path class="st0" d="M982.7,42.7L982.7,42.7l4.1-12.1h4.4L985,47.1c-1.4,3.7-2.4,7.3-6.9,7.3c-1,0-2.1-0.2-3.1-0.5l0.3-3.2
			c0.5,0.2,1.2,0.3,2.2,0.3c1.7,0,2.8-1.2,2.8-3L974,30.6h4.8L982.7,42.7z"/>
		<path class="st0" d="M994.3,30.6h4.5v4.5h-4.5V30.6z M994.3,42.7h4.5v4.5h-4.5V42.7z"/>
	</g>
	<path class="st0" d="M647.2,56.3c0.1-0.2,0.2-0.5,0.3-0.6c0.1-0.4-0.1-0.8-0.5-1.2c-0.9-1.1-2.6-1.9-3.8-1.8
		c-1.9,0.2-3.7,1.8-4,3.7c-0.3,1.9,1,3.3,3,3.2C643.8,59.4,646.4,57.6,647.2,56.3"/>
	<path class="st0" d="M666.6,53.7c0.1-1.1-1.1-2.1-4-3.2C654,47.4,649,39.7,647.3,28c0,0,0-0.1,0-0.1c0,0-0.1-0.1-0.1-0.1
		c-0.4-0.4-0.9-0.7-1.4-0.3c-1.1,0.9-0.4,5,2.3,16.5c0,0,1.1,4.5,1.1,4.5c0.6,2.6,0.7,4.6,0.4,6.6c-0.3,2-1,4.2-2.4,7l-2.5,5
		c-6.6,13.4-8.8,18.4-7.9,19.3c0.4,0.4,1.1-0.1,1.7-0.6c0,0,0.1,0,0.1-0.1c0-0.1,0.1-0.1,0.1-0.1c1.8-4.3,3.8-8.2,5.9-11.6
		c4.7-7.6,10.5-13,17.2-16.3c2.5-1.2,4-2.3,4.6-3.2C666.5,54.1,666.6,53.9,666.6,53.7"/>
	<path class="st0" d="M725.7,30.3c0,0,0.1,0,0.2,0c0.1,0,0.2-0.1,0.2-0.1c0.7-0.3,1.4-0.7,1.7-1.1c0.1-0.2,0.2-0.4,0.1-0.5
		c-0.1-1.6-6.1-1.8-22.1-1.6c0,0-5.7,0.1-5.7,0.1c-3.1,0-5.3-0.3-7-1.1c-1.7-0.8-3.2-2-4.9-4l-2.9-3.6c-7.1-9.1-9.8-12-11.1-11.2
		c-0.2,0.1-0.3,0.2-0.4,0.4c-0.3,0.4-0.3,1-0.2,1.4c0,0,0,0.1,0,0.1c0,0,0.1,0.1,0.1,0.1c7.8,8,10.7,17.7,8.1,28.7
		c-0.8,3.6-0.8,5.5,0.1,5.9c0.9,0.5,2.7-0.5,5.8-3C697.2,32.7,709.8,29.1,725.7,30.3"/>
	<path class="st0" d="M700,14.4c-1.7-0.7-4.2,0.6-5.6,2.8c-1.3,2.1-1.5,6.1-0.3,6.6c1.2,0.5,5.2-2,6.5-4.1
		C702,17.4,701.7,15,700,14.4"/>
	<path class="st0" d="M677.9,89.9c0,0,4-4.9,4-4.9c2.2-2.7,4.2-4.5,6.2-5.8c2.1-1.2,4.5-2,7.9-2.6l6.2-1c17.2-2.8,23.6-4.1,23.9-6
		c0.1-0.9-0.9-1.3-1.8-1.5c0,0-0.1,0-0.2,0c-0.1,0-0.2,0-0.2,0c-17.1,4.4-30,2.7-38.7-4.4c-2.7-2.2-4.4-2.9-5.4-2.2
		c-0.2,0.1-0.4,0.3-0.6,0.6c-0.6,1-0.9,2.9-0.8,5.8c0.3,8.2-2.3,16.7-7.5,25c-2.4,3.8-5.3,7.5-8.7,11.2c0,0-0.1,0.1-0.1,0.1
		c0,0.1,0,0.1,0,0.1c-0.3,0.9-0.5,1.9,0.2,2.3C663.6,107.3,667.5,102.9,677.9,89.9"/>
	<path class="st0" d="M688.6,89.3c0.6,1.3,1.6,2.3,2.8,2.6c1,0.3,2,0.2,2.9-0.3c0.9-0.5,1.6-1.4,1.9-2.5c0.4-1.3,0.3-2.9-0.3-4.1
		c-1.1-2.3-5-4.5-6.4-3.7c-0.2,0.1-0.4,0.3-0.6,0.6c-0.2,0.3-0.3,0.6-0.4,1C687.9,84.8,687.9,87.7,688.6,89.3"/>
	<path class="st0" d="M762.6,46.2c0.2-0.1,0.2-0.3,0.2-0.4c0-0.2-0.1-0.3-0.3-0.4c-1.1-0.7-26.2-15.9-47.3-10.4
		c-0.2,0-0.3,0.2-0.4,0.3c0,0.1-0.1,0.1-0.1,0.2c0,0.2,0.1,0.4,0.4,0.4c14,1,27.6,8.5,31.6,10.9l0.7,0.4l-0.7,0.5
		c-4.1,3.1-18.2,13.2-32.8,16.9c-0.3,0.1-0.5,0.3-0.5,0.6c0,0.3,0.2,0.5,0.5,0.5C735.6,67.5,761.5,47.1,762.6,46.2"/>
	<path class="st0" d="M674.2,17c0.2-0.1,0.3-0.4,0.2-0.5C670.3,3.2,652.7,0.1,652,0c-0.1,0-0.2,0-0.3,0.1c-0.1,0.1-0.2,0.2-0.2,0.3
		c-0.3,0.9-6.4,21.4,0.7,32.1c0.1,0.1,0.3,0.2,0.5,0c0.2-0.1,0.3-0.3,0.2-0.5c-1.7-9.6,1-21.2,1.9-24.5L655,7l0.4,0.1
		c2.7,0.6,12.2,3.3,18.3,10C673.8,17.2,674,17.2,674.2,17"/>
	<path class="st0" d="M665.2,93.8c0.1-0.2,0.1-0.5-0.1-0.6c-0.2-0.1-0.4-0.1-0.6,0.1c-9,10-21.1,15.6-24.5,17.1l-0.6,0.2l0-0.7
		c0.2-4.1,1.1-18.2,6.1-30c0.1-0.2,0-0.5-0.1-0.6c-0.2-0.1-0.4,0-0.5,0.1c-11.3,14.2-12,39.9-12,41c0,0.2,0,0.3,0.1,0.4
		c0.1,0.1,0.2,0.1,0.3,0.1C634.3,120.6,656.7,112.3,665.2,93.8"/>
	<path class="st0" d="M816.2,78.6h7v6.6h0.2c2.2-4.7,7.4-7.5,12.9-7.5c10.2,0,14.7,6.7,14.7,17.8V120h-7.3V98.6
		c0-9.7-2-14.3-8.3-14.8c-8.3,0-12,7-12,17V120h-7.3V78.6z"/>
	<path class="st0" d="M906.1,100.3c-1.6,0-3.1-0.2-4.6-0.2c-3.9,0-13.7,0.6-13.7,8c0,4.4,4,6.8,7.3,6.8c7.2,0,10.9-4.7,10.9-10.9
		V100.3z M884.6,81.6c3.6-2.3,7.9-3.9,13-3.9c11.3,0,15.8,5.8,15.8,17.1v17.1c0,4.7,0.2,6.9,0.3,8.1h-6.8v-5.4h-0.1
		c-1.7,2.5-5.6,6.3-12.2,6.3c-8.5,0-14.4-3.9-14.4-12.9c0-10.4,10.8-13.6,18.3-13.6c2.9,0,4.8,0,7.7,0.2c0-7.1-2.5-10.8-9.7-10.8
		c-4.1,0-8.5,1.6-11.4,4.2L884.6,81.6z"/>
	<path class="st0" d="M941.9,85.3c-1-0.2-2.1-0.3-3-0.3c-6.8,0-11.3,6.5-11.3,16.9V120h-7.6V78.9h7.2v6.8h0.1
		c2-4.3,6.4-7.4,10.8-7.4c1.7,0,2.7,0.1,3.8,0.3V85.3z"/>
	<path class="st0" d="M980,114.9c8.5,0,12.3-8.1,12.3-15.5c0-7.9-4.6-15.5-12.3-15.5c-7.8,0-12.3,7.6-12.3,15.5
		C967.7,106.7,971.4,114.9,980,114.9 M980,77.7c11.9,0,20,9.1,20,21.7c0,11.8-8.2,21.7-20,21.7c-11.9,0-20.1-9.8-20.1-21.7
		C960,86.7,968,77.7,980,77.7"/>
	<path class="st0" d="M877.2,78.6h-10.6v-12L859,69v9.5l-6.3,6.2h6.3V109c0,8.3,4.9,12,12.7,12c2.3,0,4.5-0.5,6.2-1v-6.4
		c-1.1,0.7-2.8,1.3-4.9,1.3c-3.5,0-6.4-2.6-6.4-7.4V84.8h10.6V78.6z"/>
	<rect x="946.6" y="78.6" class="st0" width="7.6" height="41.4"/>
	<path class="st0" d="M950.4,73.1c2.6,0,4.7-2.1,4.7-4.7c0-2.6-2.1-4.7-4.7-4.7c-2.6,0-4.7,2.1-4.7,4.7
		C945.7,71,947.8,73.1,950.4,73.1"/>
	<path class="st0" d="M784.5,113.9c12.4,0,17.8-10.9,17.8-22.2c0-11.5-5.9-22.2-17.8-22.2c-11.9-0.1-17.7,10.6-17.7,22.2
		C766.8,103,772.1,113.9,784.5,113.9 M784.5,62.4c16.4,0,25.9,12.5,25.9,29.3c0,17.2-9.5,29.3-25.9,29.3
		c-16.4,0-25.9-12.1-25.9-29.3C758.6,74.9,768.2,62.4,784.5,62.4"/>
</g>
</svg>
