<svg id="Layer_1" data-name="Layer 1" xmlns="http://www.w3.org/2000/svg" viewBox="0 0 29.62 27.7"><defs><style>.cls-1{fill:#1e1a34;}</style></defs><title>item-view-assets</title><g id="Group_7521" data-name="Group 7521"><path id="Path_29182" data-name="Path 29182" class="cls-1" d="M9.52,27.7H20.1a2,2,0,0,0,2-2V22.14h5.49a2,2,0,0,0,2-2V8.41a2,2,0,0,0-2-2H24.23V1.21A1.21,1.21,0,0,0,23,0H6.6A1.22,1.22,0,0,0,5.39,1.21V6.4H2a2,2,0,0,0-2,2V20.12a2,2,0,0,0,2,2h5.5v3.54a2,2,0,0,0,2,2ZM20.38,26a.4.4,0,0,1-.28.12H9.52a.41.41,0,0,1-.4-.4V17.06a.36.36,0,0,1,.12-.28.38.38,0,0,1,.28-.12H20.1a.41.41,0,0,1,.4.4v8.63a.38.38,0,0,1-.12.28ZM7,1.61H22.62V6.4H7ZM2,20.53a.47.47,0,0,1-.28-.12.4.4,0,0,1-.12-.29V8.41a.4.4,0,0,1,.12-.29A.38.38,0,0,1,2,8h25.6a.47.47,0,0,1,.28.12.4.4,0,0,1,.12.29V20.12a.4.4,0,0,1-.12.29.36.36,0,0,1-.28.12H22.12V17.06a2,2,0,0,0-2-2H9.52a2,2,0,0,0-2,2v3.47Z"/><circle id="Ellipse_9" data-name="Ellipse 9" class="cls-1" cx="24.5" cy="11.05" r="1.5"/></g></svg>