<svg id="Layer_1" data-name="Layer 1" xmlns="http://www.w3.org/2000/svg" viewBox="0 0 70.92 92.64"><defs><style>.cls-1{fill:#fcb539;}.cls-2{fill:#1d1934;}</style></defs><title>icon</title><path class="cls-1" d="M29.84,54l-.09,0h-1A2.9,2.9,0,0,0,27.9,54a1.19,1.19,0,0,0-1,.79c-.32.84.49,1.57,1.08,2a4.28,4.28,0,0,0,1.82.77,1.83,1.83,0,1,0,0-3.53"/><path class="cls-1" d="M20.15,72.68c-1-2.06-1.94-4.08-2.77-6.22A30.93,30.93,0,0,0,15.05,61a1.15,1.15,0,0,0-2.13.58C13,65.7,14.51,70,15,74.07c.57,4.52,7.06,2.58,5.12-1.39"/><path class="cls-1" d="M8.87,80.37a18.45,18.45,0,0,1-2.2,7.56c-.94,1.58,1.37,3.48,2.61,2,2.24-2.64,4.1-6,4.12-9.57,0-3-4.16-2.8-4.53,0"/><path class="cls-1" d="M66.91,75.48c3.53-5.54,4.42-12.88.31-18.32-2.24-3-7.74-1.44-6.48,2.73.95,3.13,1.91,5.89,1,9.17a11.15,11.15,0,0,1-5.57,6.79c-6.24,3.27-11.19-.12-16.32-3.5-1.14-.76-2.34.49-2.13,1.64a12.3,12.3,0,0,0,.36,1.39,3.15,3.15,0,0,0-.9-.13c-1,0-2,0-3.06.13a2.77,2.77,0,0,0,1.08-4c-.63-.92-.36-3.39-.44-4.48-.11-1.28-.23-2.54-.4-3.81a11.18,11.18,0,0,1,.06-4.16,8.73,8.73,0,0,0,.53-2.8.75.75,0,0,0-1.26-.53c-1.31,1.2-2.9,1.82-3.8,3.44a12,12,0,0,0-1,5.4c-.09,3.33-1.13,9.06,2.23,11a2.42,2.42,0,0,0,.4.19c-1.35.18-2.69.4-4,.63a51.38,51.38,0,0,0-9.92,2.28A1.25,1.25,0,0,0,17.91,81c3.2.08,6.39-.33,9.6-.19s6.44.59,9.67.79a2.79,2.79,0,0,0,3-2.57c4.31,4.78,12.85,5.69,18.61,3.4A10.7,10.7,0,0,1,55,84.81c-3.87,1.36-7-.22-10.78-.69-1.16-.14-1.57,1.2-1.15,2,2,4.6,8.8,5.53,13.13,4.71C62,89.81,66.14,85,69.34,80.44c1.5-2.13-.32-4.54-2.43-5"/><path class="cls-1" d="M46.6,46.1c-.53-.33-1.06-.63-1.61-.91.87-2.92,1.84-5.82,1.58-8.95-.18-2.05-.69-4.7-2.87-5.35a.55.55,0,0,0-.63.27A7.48,7.48,0,0,0,43,30a4.46,4.46,0,0,0-2.89-3.37.31.31,0,0,0,0-.1,1.31,1.31,0,0,0-.32-.83,2.23,2.23,0,0,0,.84-1.31,1.65,1.65,0,0,0,1.63-.25,29.88,29.88,0,0,1,2.67-1.95l1-.59a2.59,2.59,0,0,0,.9-.3,1.34,1.34,0,0,0,.46.08,1.18,1.18,0,0,0,1.08-1.64,2.61,2.61,0,0,0,0-2.28,3,3,0,0,0-1.56-2.69c-8.21-5.19-21.06-7.57-28.6.42a.61.61,0,0,0,.59,1c4.43-1.19,8.42-2.49,13.09-1.8a20.46,20.46,0,0,1,3.87,1,1.64,1.64,0,0,0,0,1.48,6.5,6.5,0,0,1,.63,2.89,60.66,60.66,0,0,0-11.66.56c-4,.6-8.86,1.52-12.14,4-.53.4-.44,1.43.37,1.39,3.9-.19,7.75-1.51,11.68-1.83a45.31,45.31,0,0,1,11.1.42,2.22,2.22,0,0,0,.7,1.14,29.88,29.88,0,0,0-15.48,0,.76.76,0,0,0,.2,1.49c4.38.25,11.63,1.29,15.46,4.36a11,11,0,0,0,.28,4.44,1.42,1.42,0,0,0,.08.18c-.93,3.49-2.27,6.57-5.54,8.52C28.65,46,22.73,47.44,19.9,45.43a1,1,0,0,0-1.51.86c-.3,5.91,10.51,5.3,13.92,4,5.75-2.13,10.27-7.88,10.47-14.06a2.54,2.54,0,0,0-.39-1.53,8.73,8.73,0,0,0,.67-3c2.1,3.81-1,10.29-3,13.57a2.45,2.45,0,0,0-.3,1.47,2,2,0,0,0-.65.68,1.2,1.2,0,0,0-1.82,1,7.93,7.93,0,0,0,.48,2.31,6.91,6.91,0,0,0,1.19,2.47c1.08,1.25,3.3.26,3.38-1.22a2,2,0,0,0,1.45.63A2.09,2.09,0,0,0,45,52.23a3.23,3.23,0,0,0,3.28-.67l.52-.46c2.28-2.05.18-5-2.24-5m-6-26.8c.45.2.88.41,1.3.63-.37.44-.76.87-1.16,1.29a11.26,11.26,0,0,0-.41-2.08,1.2,1.2,0,0,0,.27.16"/><path class="cls-1" d="M59.66,41.34a2.79,2.79,0,0,0-3.36-1.91,22.41,22.41,0,0,1-3.92.74c-.79,0-2.53-.18-2.73,1-.25,1.52,1.48,2.26,2.64,2.74a10.39,10.39,0,0,0,5.47.83c1.46-.2,2.26-2.07,1.9-3.36"/><path class="cls-1" d="M57.75,35.52c-1.83-5.64-3-11.49-4.89-17.1-.23-.68-1.4-.62-1.32.18C52.11,24.43,53.39,30.18,54,36c.3,2.84,4.57,2,3.74-.5"/><path class="cls-1" d="M12.06,26.39a12.86,12.86,0,0,0-1.6-2.79,22,22,0,0,0-1.88-2.49,1.26,1.26,0,0,0-2.09,1.21A20.7,20.7,0,0,0,7.55,25a12.21,12.21,0,0,0,1.38,2.69,1.73,1.73,0,0,0,2.14.7,1.69,1.69,0,0,0,1-2"/><path class="cls-2" d="M11.07,27.79a.92.92,0,0,1-.84-.55A.93.93,0,0,1,10.7,26c5.09-2.23,11-3.27,18.65-3.27,5.79,0,9,.24,11.74.88a.92.92,0,0,1-.41,1.79c-2.63-.61-5.7-.83-11.33-.83-7.37,0-13.06,1-17.91,3.12a1,1,0,0,1-.37.08"/><path class="cls-2" d="M26.09,52.51c-6.81,0-11.38-3.51-14.33-11h-.48a4.81,4.81,0,0,1-4.76-5A7,7,0,0,1,10,30.71c0-.27,0-.53,0-.8A61.94,61.94,0,0,1,10.53,23l0-.27a8.1,8.1,0,0,1,6-7.22c2.69-.61,5.91-1.17,9.58-1.68a48.88,48.88,0,0,1,6.79-.59c8.23,0,9.29,4.1,9.29,7.67a22.24,22.24,0,0,1-.29,3.54C43.71,28,44,30.59,44,34.43c0,11.49-6.54,18.08-17.95,18.08M12.37,39.58a.9.9,0,0,1,.86.6c2.68,7.25,6.64,10.49,12.86,10.49,10.39,0,16.11-5.77,16.11-16.24,0-3.7-.31-6.06-2.05-9.34,0,0,0,0,0,0L40.08,25a.91.91,0,0,1,0-.94A19.85,19.85,0,0,0,40.36,21c0-4.88-2.73-5.83-7.45-5.83a47.63,47.63,0,0,0-6.54.57c-3.61.51-6.78,1.06-9.43,1.66A6.27,6.27,0,0,0,12.38,23l0,.28a61.28,61.28,0,0,0-.49,6.66c0,.43,0,.86,0,1.29a.92.92,0,0,1-.51.86,5.22,5.22,0,0,0-3,4.39,3,3,0,0,0,2.93,3.22,6.3,6.3,0,0,0,1-.08h.14"/><path class="cls-2" d="M7.93,28.1a.93.93,0,0,1-.73-.35,98.58,98.58,0,0,1-5.79-8.42C1,18.68.58,18,.15,17.35A.89.89,0,0,1,0,16.62.9.9,0,0,1,.51,16c5.34-2.65,10.63-5.3,15.93-7.95s10.66-5.33,16-8a.9.9,0,0,1,1.08.19l.25.27c2.85,3,13.26,11.38,18.36,15.39a.92.92,0,0,1,.06,1.39,81.73,81.73,0,0,0-7.63,8.37.92.92,0,0,1-1.43-1.16,86.53,86.53,0,0,1,7-7.81C45,12.61,35.71,5.13,32.69,2L17.26,9.74l-15,7.49c.24.37.48.74.71,1.11a95,95,0,0,0,5.69,8.27.92.92,0,0,1-.16,1.29.88.88,0,0,1-.56.2"/><path class="cls-2" d="M52.35,35.37a.92.92,0,0,1-.91-.77,116.29,116.29,0,0,1-1.12-18.14.92.92,0,0,1,.91-.92.93.93,0,0,1,.93.92,114.37,114.37,0,0,0,1.1,17.84.93.93,0,0,1-.76,1.06h-.15"/><path class="cls-2" d="M52.74,40.81c-1.24,0-2.56,0-3.9-.12a.91.91,0,0,1-.8-1.27,23.8,23.8,0,0,1,2.48-4.21c.38-.54.75-1.09,1.11-1.64a.9.9,0,0,1,.71-.43.93.93,0,0,1,.77.32,35.77,35.77,0,0,1,2.47,3.4c.56.82,1.07,1.6,1.64,2.35a.9.9,0,0,1,.11.93.92.92,0,0,1-.78.54c-1.21.08-2.5.13-3.81.13m-2.42-1.89c1.56.06,3,.06,4.44,0-.24-.34-.47-.7-.71-1-.5-.76-1-1.53-1.57-2.27l-.44.64c-.62.89-1.21,1.75-1.72,2.66"/><path class="cls-2" d="M10.19,89.6c-5.56,0-9-3.94-9-23.53,0-12.24,4.51-17.75,15.54-19a.92.92,0,0,1,.2,1.82C6.92,50,3,54.85,3,66.07c0,20,3.54,21.69,7.17,21.69,2.53,0,3.18-2,3.18-9.58,0-2.81-.19-5.67-.38-8.44s-.38-5.64-.38-8.47c0-.43,0-.87,0-1.3a.92.92,0,0,1,1.84,0c0,.42,0,.84,0,1.26,0,2.77.19,5.6.37,8.35s.39,5.69.39,8.56c0,6.9-.35,11.42-5,11.42"/><path class="cls-2" d="M5.25,81.08a.92.92,0,0,1-.33-1.78,37,37,0,0,1,9.27-2,.94.94,0,0,1,1,.81.92.92,0,0,1-.81,1A34.75,34.75,0,0,0,5.58,81a1,1,0,0,1-.33.06"/><path class="cls-2" d="M16.56,79.39a.92.92,0,0,1-.89-.69.93.93,0,0,1,.66-1.12C21.69,76.2,27.25,76,32.62,75.89l1.79-.06a.92.92,0,0,1,.94.89.91.91,0,0,1-.88,1l-1.8,0c-5.51.16-10.72.31-15.88,1.64l-.23,0"/><path class="cls-2" d="M29.17,58.35c-4.12,0-5.82-4.34-6.73-6.66A.92.92,0,0,1,23,50.5a.91.91,0,0,1,1.19.51c1.29,3.31,2.64,5.5,5,5.5,1.27,0,3.2,0,3.2-5,0-.31,0-.62,0-.94a.92.92,0,0,1,1.83-.11c0,.35,0,.7,0,1,0,4.69-1.61,6.88-5,6.88"/><path class="cls-2" d="M29.59,76a.92.92,0,0,1-.92-.89c-.16-5.86-.48-11.49-.81-17.44l0-.22a.92.92,0,0,1,.87-1,.93.93,0,0,1,1,.86v.22c.34,6,.65,11.61.82,17.49a.94.94,0,0,1-.92,1"/><path class="cls-2" d="M52.35,85a18.79,18.79,0,0,1-19-18.57c0-9.24,8.09-17.05,17.66-17.05a18.12,18.12,0,0,1,2.55.19,27.89,27.89,0,0,1,9.72,2.84c4.48,2.52,7.6,8.48,7.6,14.48C70.92,75.64,64.41,85,52.35,85m-1.3-33.78c-8.58,0-15.82,7-15.82,15.21A16.94,16.94,0,0,0,52.35,83.13c10.87,0,16.73-8.38,16.73-16.27,0-5.37-2.74-10.66-6.66-12.87-2.81-1.58-5.78-2.12-9.1-2.62a14.38,14.38,0,0,0-2.27-.18"/><path class="cls-2" d="M40.06,92.29a1,1,0,0,1-.45-.11.92.92,0,0,1-.35-1.26C40.87,88,42.37,85,43.81,82l0-.08a.92.92,0,0,1,1.65.81l0,.07c-1.46,3-3,6-4.6,9a.92.92,0,0,1-.8.47"/><path class="cls-2" d="M40.93,92.64c-2.49,0-4-.92-4-2.47A7.48,7.48,0,0,1,37.08,89a6.79,6.79,0,0,0,.1-.91.92.92,0,0,1,1.84,0,7.74,7.74,0,0,1-.12,1.19,5.16,5.16,0,0,0-.1.87c0,.35,1,.63,2.13.63a15,15,0,0,0,3.39-.55,14.79,14.79,0,0,1,4.27-.61.91.91,0,0,1,.87,1,.92.92,0,0,1-1,.88,13.15,13.15,0,0,0-3.75.55,16.13,16.13,0,0,1-3.82.61"/><path class="cls-2" d="M43.87,83.15a.93.93,0,0,1-.73-.36,21.37,21.37,0,0,1-4.59-13.26c0-10.8,6.54-18.31,17.08-19.61a.92.92,0,0,1,.22,1.82c-9.68,1.19-15.47,7.85-15.47,17.79a19.44,19.44,0,0,0,3.2,10.72A122.08,122.08,0,0,1,58.52,51.14a.92.92,0,1,1,1.51,1A120.23,120.23,0,0,0,44.74,82.53a.92.92,0,0,1-.72.61h-.15"/><path class="cls-2" d="M44.87,83.35l-.95,0a.92.92,0,0,1-.86-1,.89.89,0,0,1,1-.85l.84,0c4.72,0,9.15-2.6,12.48-7.33A25,25,0,0,0,62,60.71a31.39,31.39,0,0,0-1.05-7.85.92.92,0,1,1,1.77-.47,32.84,32.84,0,0,1,1.12,8.32c0,9.23-7.37,22.64-18.92,22.64"/><path class="cls-2" d="M67.88,62.31c-8.16,0-15.9-4.65-19.25-11.56a.92.92,0,0,1,1.66-.8c3.05,6.29,10.12,10.52,17.59,10.52.39,0,.77,0,1.16,0a.91.91,0,0,1,1,.87.92.92,0,0,1-.86,1c-.42,0-.85,0-1.27,0"/><path class="cls-2" d="M68.42,75a.86.86,0,0,1-.41-.1c-3.06-1.55-6-3.32-9-5.2-.91-.56-1.83-1.12-2.77-1.68-3.86-2.34-7.88-4.26-11.78-6.13-2.48-1.19-5.06-2.43-7.56-3.75a.94.94,0,0,1-.39-1.25.92.92,0,0,1,1.25-.38c2.47,1.31,5,2.54,7.5,3.72,3.93,1.89,8,3.84,11.93,6.21L60,68.13c3,1.86,5.9,3.61,8.89,5.13A.92.92,0,0,1,68.42,75"/><path class="cls-2" d="M58.11,84.14a.93.93,0,0,1-.84-.54c-3.38-7.51-12-13-20.53-13a19.19,19.19,0,0,0-2,.1.92.92,0,0,1-.19-1.83,20.26,20.26,0,0,1,2.2-.11c9.35,0,18.48,5.78,22.21,14a.92.92,0,0,1-.46,1.22.84.84,0,0,1-.38.08"/><path class="cls-2" d="M61,53.21a.79.79,0,0,1-.3-.05A.92.92,0,0,1,60.15,52a29.24,29.24,0,0,1,1.73-3.76c.2-.38.41-.77.6-1.16a.92.92,0,1,1,1.65.82c-.2.4-.41.8-.62,1.2a24.55,24.55,0,0,0-1.61,3.5.92.92,0,0,1-.87.62"/></svg>