<svg id="Layer_1" data-name="Layer 1" xmlns="http://www.w3.org/2000/svg" viewBox="0 0 86.22 86.2"><defs><style>.cls-1{fill:#fcb539;}.cls-2{fill:#1d1934;}</style></defs><title>icon</title><path class="cls-1" d="M72.37,81.67A2.48,2.48,0,0,0,72,80.34c-.91-1.46-1-3.32-1.69-4.89s-2.74-.81-3.21.42a8.91,8.91,0,0,0-.34,3.71l-.91,0A3.59,3.59,0,0,0,63.13,74c-5.12-.24-10.56.85-15.67,1.36-2.64.26-3.14.3-5.28-1.08a17.62,17.62,0,0,0-5.74-2.64,1,1,0,0,0-1.15,1.15A17.06,17.06,0,0,0,38,78.11c-5-.1-10.14.14-15.18.38-4.63.21-9.93,0-14.33,1.56a.63.63,0,0,0,0,1.21c4.45,1.44,9.7,1,14.33,1l3.85,0a.9.9,0,0,0,.63,1.11c6.6,1.24,13.74.77,20.44,1.28,7.26.56,14.61,1.71,21.9,1.49a3.06,3.06,0,0,0,2.75-4.5"/><path class="cls-1" d="M83.11,67c-.46-.06-.94-.08-1.41-.11l1.15-.18c2.42-.42,1.17-4.57-1.41-3.35a40.27,40.27,0,0,1-6,2.27.93.93,0,0,0-.57,1.26c-3.21.18-6.41.53-9.48.77-5.61.44-11.34.82-16.8,2.2-2.12.54-1.47,3.4.49,3.59,5.63.55,11.34.21,17,.18s11.49.49,17-.2a3.22,3.22,0,0,0,0-6.43"/><path class="cls-1" d="M45.48,67.91C41.93,67,38.25,65.57,34.65,65a1.52,1.52,0,0,0-1.17,2.76c3.07,1.93,6.73,3.32,10,5,3.43,1.73,5.63-3.81,2-4.78"/><path class="cls-1" d="M16.15,9c-.66-1.68-1.06-3.65-2.06-5.14a.72.72,0,0,0-1.29.17c-.46,1.93-.13,4.19-.16,6.19a7.79,7.79,0,0,1,0,1.19l-.1.06a3.93,3.93,0,0,1-1.5.31,2.38,2.38,0,0,0-2.6-.7c-1.12.34-2.19.86-3.3,1.24-.77.27-1.56.5-2.31.82l-.17.05L2,13.6a1.43,1.43,0,0,0,.34,2.58,14.09,14.09,0,0,0,6.73.34,2.43,2.43,0,0,0,1.31.65c2.74.49,6.39-.86,6.75-4a8.58,8.58,0,0,0-1-4.15"/><path class="cls-1" d="M69.1,27c-.9-7.3-1.66-15.58-4.7-22.33-.4-.91-1.57-.31-1.66.45-.94,7.52.26,15.66.47,23.25.08,3,0,6.13,0,9.22-.2-3.26-.45-6.51-.66-9.75-.47-7.33-.55-15.29-2.74-22.36a.55.55,0,0,0-1.08.14c-.65,7.54.57,15.34.77,22.9s-.33,15.31-.24,23c0,2.73,4.12,2.71,4.24,0,0-.18,0-.36,0-.53l.06.79a3.49,3.49,0,0,0,7,0c.91-8-.43-16.78-1.42-24.75"/><path class="cls-2" d="M20.48,82.38c-5.46,0-10.84-.09-16-.25a1,1,0,0,1-1-.88A426.33,426.33,0,0,1,0,24.49c0-4.58.06-9.3.18-14a1,1,0,0,1,.36-.75L3.83,6.91c2.32-2,4.72-4,7.16-6a1.1,1.1,0,0,1,.66-.21c1.21,0,2.43,0,3.65,0C20,.76,25,.55,29.72.36,34.14.18,38.31,0,42,0s7.59.14,11.3.27c2.89.1,5.88.21,8.81.25a1,1,0,0,1,.72.32,1.06,1.06,0,0,1,.29.72C63.06,4.11,63,6.7,63,9.29,63,22,63.63,35.61,65,53.47a1,1,0,1,1-2,.15C61.59,35.7,61,22,61,9.29c0-2.25,0-4.52.06-6.75-2.62,0-5.26-.14-7.83-.23C49.54,2.17,45.72,2,42,2s-7.8.17-12.19.35c-4.8.2-9.75.41-14.51.41-1.11,0-2.23,0-3.33,0-2.31,1.84-4.6,3.8-6.81,5.7L2.2,11C2.09,15.53,2,20.07,2,24.49A424.15,424.15,0,0,0,5.42,80.12c4.86.15,9.93.22,15.06.22,13.45,0,28-.5,44.46-1.53l-.42-5.16a1,1,0,0,1,.93-1.1,1,1,0,0,1,1.1.93l.51,6.19a1,1,0,0,1-.25.75,1,1,0,0,1-.7.35c-16.94,1.09-31.86,1.61-45.63,1.61"/><path class="cls-2" d="M11.71,12.9c-3.43-.05-6.71-.39-10.64-.83a1,1,0,0,1-.9-1.13A1,1,0,0,1,1.3,10c3.48.4,6.44.71,9.41.8,0-.57,0-1.15,0-1.73.06-2.42.13-4.93.14-7.37a1,1,0,1,1,2,0c0,2.47-.08,5-.14,7.42l-.08,2.73a1,1,0,0,1-1,1"/><path class="cls-2" d="M24.33,23c-4.28,0-8.23-.05-12.08-.15-.78,0-1.4-.49-1.37-1.05s.71-1,1.47-1c3.81.09,7.74.14,12,.14,5.82,0,12-.09,19.45-.28.81,0,1.44.42,1.46,1s-.58,1-1.36,1.05C36.4,23,30.19,23,24.33,23"/><path class="cls-2" d="M51.53,24.34a1,1,0,0,1-.68-.25,19.1,19.1,0,0,1-1.86-2c-.43-.5-.84-1-1.27-1.41a1,1,0,0,1,0-1.44,1,1,0,0,1,1.44,0c.5.5.94,1,1.37,1.52s.59.69.89,1a22.45,22.45,0,0,1,4.32-4.47,1,1,0,0,1,1.42.21A1,1,0,0,1,57,19a23.84,23.84,0,0,0-4.62,5,1,1,0,0,1-.71.4h-.09"/><path class="cls-2" d="M12.39,36.08c-.8,0-1.47-.42-1.51-1s.59-1,1.42-1.07c4.5-.17,9.05-.19,13.45-.22,5.82,0,11.83-.06,17.7-.43.84-.07,1.58.35,1.66.92s-.54,1-1.37,1.11c-6,.38-12.09.41-18,.44-4.36,0-8.88,0-13.3.21h-.09"/><path class="cls-2" d="M52.3,37.72a1.11,1.11,0,0,1-.64-.23A21.92,21.92,0,0,1,49,34.7c-.51-.62-1-1.2-1.52-1.72a1,1,0,0,1,1.44-1.44c.58.59,1.12,1.22,1.64,1.84s1,1.23,1.6,1.8l.12-.16a44.28,44.28,0,0,1,4.68-5.85,1,1,0,0,1,1.44,1.44,43.64,43.64,0,0,0-4.47,5.59c-.25.37-.52.73-.77,1.09a1.05,1.05,0,0,1-.7.42H52.3"/><path class="cls-2" d="M12.54,49.88c-.85,0-1.56-.39-1.65-.92s.56-1.06,1.47-1.12c4.54-.29,9.13-.38,13.57-.46,5.47-.11,11.11-.21,16.62-.72.9-.08,1.75.31,1.89.86S44,48.6,43,48.68c-5.7.52-11.44.63-17,.73-4.38.08-8.91.17-13.33.46h-.17"/><path class="cls-2" d="M11.83,65.81a1,1,0,0,1-.95-.91,1,1,0,0,1,.85-1.12c2.6-.3,5.23-.38,7.77-.47A76.66,76.66,0,0,0,29,62.6a1,1,0,0,1,1.08.86,1,1,0,0,1-.8,1.16,77.1,77.1,0,0,1-9.74.73c-2.51.08-5.1.17-7.63.45h-.1"/><path class="cls-2" d="M52,50.14A1,1,0,0,1,51.4,50a19.87,19.87,0,0,1-4-3.61A1,1,0,0,1,49,45a17.4,17.4,0,0,0,2.88,2.73l1-1.15a51.94,51.94,0,0,1,4-4.06,1,1,0,0,1,1.36,1.53A48.42,48.42,0,0,0,54.4,48c-.56.61-1.11,1.22-1.69,1.83a1,1,0,0,1-.74.32"/><path class="cls-2" d="M45.29,75.86a1.11,1.11,0,0,1-.43-.09,78.47,78.47,0,0,1-11.22-6.83c-1.9-1.3-3.87-2.65-5.84-3.86a1,1,0,0,1-.48-.82,1,1,0,0,1,.39-.86A175.78,175.78,0,0,1,42.53,52.93a.91.91,0,0,1,.5-.15c5.11-.19,10.3-.21,15.31-.23a256.74,256.74,0,0,0,26.13-1,1,1,0,0,1,.77.25,1,1,0,0,1,.35.73c.28,7.1.31,14.21.31,20.89a1,1,0,0,1-1,1H78.79c-11,0-22.35,0-33.38,1.38h-.12M30.11,64.13c1.59,1,3.16,2.09,4.67,3.14A81.38,81.38,0,0,0,45.46,73.8c11.06-1.32,22.38-1.34,33.33-1.35l5.07,0c0-6,0-12.36-.26-18.71-8.39.81-17,.85-25.25.87-4.91,0-10,0-15,.21-4.81,3-9.35,6.33-13.27,9.33"/><path class="cls-2" d="M33.82,68.86a1,1,0,0,1-1-1V67.2c0-1.13,0-2.25,0-3.38s0-2.47,0-3.71a1,1,0,0,1,1-1,1,1,0,0,1,1,1c0,1.25,0,2.51,0,3.76s0,2.26,0,3.39v.64a1,1,0,0,1-1,1"/><path class="cls-2" d="M44.78,75.62a1,1,0,0,1-.47-.11,1,1,0,0,1-.44-1.38c1-1.93,2.07-3.87,3.15-5.78-1.17-.93-2.42-2-3.9-3.2a1,1,0,0,1-.19-1.36c.66-.94,1.27-1.95,1.86-2.93L46,59a25.86,25.86,0,0,1-2.24-2.7c-.46-.6-.94-1.23-1.42-1.8A1,1,0,0,1,42.4,53a1,1,0,0,1,1.44.1c.53.62,1,1.27,1.5,1.9A18.83,18.83,0,0,0,48,58a1,1,0,0,1,.18,1.33c-.55.83-1.09,1.7-1.6,2.55s-.91,1.51-1.4,2.26c1.46,1.2,2.66,2.19,3.84,3.12a1,1,0,0,1,.25,1.3c-1.21,2.13-2.4,4.3-3.54,6.48a1,1,0,0,1-.9.54"/><path class="cls-2" d="M47.06,59.63a1,1,0,0,1-.06-2c5-.29,10.55-.44,16.86-.44,5.4,0,10.88.11,16.19.2l4.72.09a1,1,0,0,1,0,2L80,59.39c-5.3-.09-10.77-.2-16.15-.2-6.27,0-11.75.14-16.74.43h-.06"/><path class="cls-2" d="M48,69.78a1,1,0,0,1-.05-2c7.93-.45,16-.78,23.85-1.1q6.54-.26,13.07-.55a1,1,0,0,1,1.06,1,1,1,0,0,1-1,1.07q-6.52.3-13.07.55C64,69,55.93,69.33,48,69.78H48"/></svg>