<svg id="Layer_1" data-name="Layer 1" xmlns="http://www.w3.org/2000/svg" viewBox="0 0 107.32 92.37"><defs><style>.cls-1{fill:#fcb539;}.cls-2{fill:#1d1934;}</style></defs><title>icon</title><path class="cls-1" d="M27.52,73.35c-.1-10.16-.05-20.34-.4-30.5-.17-5.09-.38-10.18-.9-15.25-.36-3.37-.06-8.72-2.41-11.3a.3.3,0,0,0-.43,0c-2.3,2.6-1.95,8-2.25,11.3,0,.34,0,.67-.07,1A79.16,79.16,0,0,0,6.74,31.74c-2.67.77-1.52,4.55,1.13,4.1,1.2-.21,2.39-.36,3.58-.48a1.74,1.74,0,0,0,1,1.84,38.15,38.15,0,0,0,8.06,2.23c0,1.14-.05,2.28-.07,3.42-.19,10.16,0,20.34.07,30.5a3.6,3.6,0,0,0,.17,1.12,24.24,24.24,0,0,1-5.34,1.4c-1.33.19-.91,2.17.3,2.24A25.22,25.22,0,0,0,26,76.59a2.08,2.08,0,0,0,1.42-2.45,3.91,3.91,0,0,0,.08-.79"/><path class="cls-1" d="M61.49,77.33c-1.07.92-3.63-.43-4.79-.68a19.69,19.69,0,0,0-5.13-.45l-.53,0a5.22,5.22,0,0,0,.36-.42c1.66-.61,1.79-2.71.91-4.06,0-1-.12-1.92-.13-2.78-.07-3.2-.15-6.39-.22-9.58-.14-6.35-.3-12.68-.59-19-.54-12.05-.44-25.08-4-36.68A1.15,1.15,0,0,0,45.09,4c-.36,6.2-.22,12.46,0,18.71l-.41,0c-5.35.08-11,.36-16.08,2-2.42.58-1.71,4,.56,4.13,5.17.38,10.35.25,15.52.81a4,4,0,0,0,.6,0l0,1.52a39.34,39.34,0,0,0-9.82.76c-1.18.25-.84,1.95.27,2a27.5,27.5,0,0,1,9.6,2c0,1,0,2,0,3.08-.09,5.88-.22,11.75-.26,17.63L45,64.87,45,69c0,.83,0,1.66,0,2.49a3.29,3.29,0,0,0-.29.66c-2.81.75-5.66,1.4-8.51,1.94-1.8.33-1.34,3.13.42,3.13a84.84,84.84,0,0,0,9.17-.54,2.4,2.4,0,0,0,.38.23c-1.92.32-3.83.66-5.76.83a68.32,68.32,0,0,1-10.61-.23c-3-.21-5.66-.63-8.22,1.34-.75.57-.66,2.11.54,2,4.26-.32,7.13,2.22,11.05,3.16s8.27.61,12.37.08S53,83.29,57,84.35c3.63.93,6.78.69,9.69-1.79,3.63-3.08-1.63-8.34-5.23-5.23"/><path class="cls-1" d="M79.72,44.6l-.23-.07-.38-.22a29.72,29.72,0,0,0-1.58-6.17A85.28,85.28,0,0,1,73.79,19c-.09-1-1.74-1.44-1.94-.26a73.16,73.16,0,0,0-1,9.78c-.36-6.08,0-12.66-1.4-18.58a1.6,1.6,0,0,0-3.07,0C65.17,15.24,65.28,21,65.06,26.53A53.37,53.37,0,0,0,58,28c-2.47.84-1.82,4,.59,4.33a40.64,40.64,0,0,0,6.15.09c0,.25,0,.5,0,.75a14.7,14.7,0,0,1-2.79-.48c-2.11-.6-3.64,2.68-1.54,3.64A32.91,32.91,0,0,0,64.43,38c-.17,3.7-.29,7.42-.37,11.13-.12,4.85,7.49,4.93,7.66.25a3.31,3.31,0,0,0,3.38.91,5.67,5.67,0,0,0,3-1.83A2.11,2.11,0,0,0,81,47.7a2.13,2.13,0,0,0-1.26-3.1m-8.09-.29,0,0c0-1.69-.1-3.39-.17-5.08.35,1.66,1,4.21.2,5.05"/><path class="cls-1" d="M63,72.25c-.7-1-.54-2.47-1.69-3.23A1.15,1.15,0,0,0,60,69.2c-.64.61-.55,1.42-.87,2.17-.14.33-.22.21-.53.61a3.12,3.12,0,0,0-.44,2.64,2.64,2.64,0,0,0,4.78.63c0-.09.09-.18.13-.25a2.73,2.73,0,0,0,0-2.75"/><path class="cls-1" d="M106.11,72.86c-.89-1.21-3.22-.56-2.64,1.11,0,0,0,0,0,.07a3.33,3.33,0,0,0-2.85.28c.15-.3.28-.61.41-.93,1.72-4.28,2.6-9.62,1.54-14.18-1.18-5.08-5.09-7.2-9.06-10a3.24,3.24,0,0,0-2.71-.6,16.28,16.28,0,0,1,1.57-2,15.21,15.21,0,0,1,3.75-2.71c3-1.57.32-6.21-2.67-4.56-3.17,1.77-7.4,6.18-6.4,10.2a1.3,1.3,0,0,0,1.55,1A4.26,4.26,0,0,0,89,55.16c1.6,2,4.75,2.77,5.79,5.13,1.13,2.59.36,6.48-.39,9.05a19.18,19.18,0,0,1-.72,2,2.33,2.33,0,0,0-2.05-.07,14.84,14.84,0,0,0-4.68,3.07c-.19.18-.39.33-.58.48a6.17,6.17,0,0,1-3.88.15,3.54,3.54,0,0,1-2.26-4.64c.36-.82-.45-2-1.37-1.38-2.6,1.78-2.45,5.45-.85,7.93a5.7,5.7,0,0,1-2.48,1.36c-1.35.31-2.59-.52-3.87-.14a1.34,1.34,0,0,0-1,1.27c.17,2.43,3.41,3.33,5.45,3.45a7.34,7.34,0,0,0,4.34-1.06c2.75,3,7.84,2.68,11.33,1.27a16,16,0,0,0,6.82-5.32,3.19,3.19,0,0,0,.28,1.34,2.57,2.57,0,0,0-.38.5l-.79.74a21.93,21.93,0,0,1-2.67,2,24,24,0,0,1-6,2.73c-2.35.71-5.06,1.41-7.54,1-2.1-.35-3.8-1.65-5.67-2.54a1.27,1.27,0,0,0-1.71,1.72C78,93.65,87.4,93.54,95,90.44c3.9-1.59,13-7.25,12.14-12.31a6.34,6.34,0,0,0-1-5.27"/><path class="cls-2" d="M6.42,79.75a1,1,0,0,1-1-.88C2.75,60.28,0,22.64,0,17.71v-.45a1,1,0,0,1,.92-1c2.4-.26,4.85-.59,7.21-.9a135.45,135.45,0,0,1,17.49-1.53,1,1,0,0,1,1,.95c.83,11.14,1.17,20,1.46,27.83.42,10.89.78,20.29,2.34,31.5a1,1,0,0,1-.14.66c-2.16,3.65-9.4,4.06-17.07,4.49-2.4.14-4.66.27-6.71.5H6.42M2.06,18.18c.15,5.87,2.61,40.45,5.24,59.43,1.85-.18,3.87-.29,5.83-.41,6.26-.35,13.32-.74,15.24-3.21-1.53-11.14-1.88-20.5-2.29-31.31-.29-7.58-.62-16.15-1.39-26.8A140.48,140.48,0,0,0,8.4,17.39c-2.08.27-4.21.55-6.34.79"/><path class="cls-2" d="M32.3,78.67c-.55,0-1.11,0-1.66,0a1,1,0,1,1,.07-2,78.1,78.1,0,0,0,15.22-1.41c1.6-.26,3.24-.52,4.89-.75-.71-8.63-.83-18.86-1-29.67-.15-13-.32-27.76-1.59-42.16-3.18-.15-6.43-.15-9.57-.15-4,0-8.13,0-12.2-.3l.55,9.22c.36,6,.71,12,1.07,18a1,1,0,0,1-1,1.08,1,1,0,0,1-1.08-1c-.36-6.06-.72-12-1.07-18l-.63-10.4a1,1,0,0,1,.31-.8A1.07,1.07,0,0,1,25.51,0c4.36.4,8.85.4,13.2.4,3.47,0,7,0,10.58.2a1,1,0,0,1,1,.93c1.34,14.76,1.51,29.88,1.67,43.21.13,11.18.25,21.73,1,30.49a1,1,0,0,1-.89,1.11c-1.93.25-3.9.56-5.8.86a88,88,0,0,1-14,1.47"/><path class="cls-2" d="M71,48.31a1,1,0,0,1-1-1c-.2-7.9-.41-16.08-.41-24.13,0-4.87.07-9.31.23-13.52-2.41.1-4.85.14-7.22.16-3.19,0-6.48.09-9.71.3-.69,0-1.29.56-2,1.78a1,1,0,0,1-1.74-1.09c.76-1.22,1.86-2.62,3.66-2.73,3.28-.21,6.6-.26,9.81-.3,2.72,0,5.54-.08,8.26-.22a1,1,0,0,1,.77.3,1,1,0,0,1,.31.76c-.19,4.53-.27,9.28-.27,14.56,0,8,.21,16.18.41,24.08a1,1,0,0,1-1,1.05"/><path class="cls-2" d="M86,85.86a8,8,0,0,1-1.2-.09,1,1,0,0,1,.34-2,4.91,4.91,0,0,0,.86.08c4.91,0,16.69-5.41,16.69-18.79,0-5.38-1.47-14.4-11.28-14.4a16.71,16.71,0,0,0-7.26,1.75,1,1,0,0,1-1.1-.13,8.22,8.22,0,0,0-5.36-1.63c-8.59,0-13.92,5.85-13.92,15.27,0,5.93,5.23,16.83,13.78,16.83a11.49,11.49,0,0,0,9.41-5.29,1,1,0,1,1,1.73,1.1A13.57,13.57,0,0,1,77.5,84.77c-4.42,0-8.58-2.48-11.71-7a22.74,22.74,0,0,1-4.12-11.89c0-10.52,6.27-17.33,16-17.33a10.62,10.62,0,0,1,6.13,1.7,18.52,18.52,0,0,1,7.59-1.68c8.47,0,13.33,6,13.33,16.45,0,14.55-12.41,20.83-18.74,20.83"/><path class="cls-2" d="M70.29,63.3a1,1,0,0,1-1-1c0-4.48,4.26-6.28,7.36-7.6l1.1-.47a1,1,0,1,1,.84,1.87l-1.14.49c-3.57,1.51-6.1,2.81-6.1,5.71a1,1,0,0,1-1,1"/><path class="cls-2" d="M81.38,51.22a1,1,0,0,1-1-1c0-10.08,7.29-12.16,13.15-13.82,1.41-.4,2.73-.77,3.93-1.24a1,1,0,0,1,1.15.3,1,1,0,0,1,.1,1.19,45.75,45.75,0,0,0-3.19,6.87,28.74,28.74,0,0,1-3.33,6.73,1,1,0,0,1-1.44.2,1,1,0,0,1-.2-1.43,28,28,0,0,0,3.06-6.25c.6-1.52,1.26-3.18,2.09-4.86l-1.61.46c-6,1.71-11.66,3.31-11.66,11.85a1,1,0,0,1-1,1"/><path class="cls-2" d="M57.56,78A9,9,0,0,1,54,77.34,1,1,0,0,1,53.45,76a1,1,0,0,1,1.35-.53,6.87,6.87,0,0,0,2.76.51,63.81,63.81,0,0,0,8.11-1,1,1,0,0,1,.38,2,65.28,65.28,0,0,1-8.49,1"/><path class="cls-2" d="M8.38,36.66H7.72A1,1,0,0,1,6.81,36,1.06,1.06,0,0,1,7,34.9l.2-.19a1,1,0,0,1,1.34-.1A31.14,31.14,0,0,0,13.73,34a32.73,32.73,0,0,1,5.84-.7,14.53,14.53,0,0,1,2.41.19,1,1,0,0,1,.85,1.17,1,1,0,0,1-1.18.85,13.92,13.92,0,0,0-2.08-.16A30.52,30.52,0,0,0,14.1,36a31.72,31.72,0,0,1-5.72.68"/><path class="cls-2" d="M7.38,30a1,1,0,0,1-.13-2,86,86,0,0,1,14.41-1,1,1,0,0,1,1,1.06,1,1,0,0,1-1.06,1A85.92,85.92,0,0,0,7.5,30H7.38"/><path class="cls-2" d="M29,24a1,1,0,0,1-1-.88,1,1,0,0,1,.87-1.16,87.38,87.38,0,0,1,12.49-.86c1.25,0,2.55,0,3.88.07a1,1,0,0,1,1,1.07,1,1,0,0,1-1.06,1c-1.31,0-2.59-.07-3.81-.07A86.49,86.49,0,0,0,29.17,24H29"/><path class="cls-2" d="M32.35,31.58a1,1,0,0,1-1-.76,1,1,0,0,1,.73-1.26,44.55,44.55,0,0,1,9.47-1.12l1.85-.08a1,1,0,0,1,.11,2.05l-1.87.09a41.9,41.9,0,0,0-9,1,.82.82,0,0,1-.26,0"/><path class="cls-2" d="M54.59,27.09a1,1,0,0,1-1-.7,1,1,0,0,1,.65-1.29A22.07,22.07,0,0,1,61.41,24a66.21,66.21,0,0,1,7.73.62,1,1,0,0,1-.24,2,63.18,63.18,0,0,0-7.49-.61,20.26,20.26,0,0,0-6.5.95.93.93,0,0,1-.32.05"/><path class="cls-2" d="M58.38,33.61a13.14,13.14,0,0,1-1.57-.09,1,1,0,1,1,.24-2,11.25,11.25,0,0,0,1.33.07,28.62,28.62,0,0,0,3.4-.27A31,31,0,0,1,65.42,31c.55,0,1.07,0,1.58.08a1,1,0,0,1-.24,2.05,9.65,9.65,0,0,0-1.34-.08,29,29,0,0,0-3.4.27,33.12,33.12,0,0,1-3.64.28"/></svg>