<svg id="mark" xmlns="http://www.w3.org/2000/svg" width="41" height="41" viewBox="0 0 41 41"><defs><style>.cls-1{fill:#424245;}</style></defs><title>expand</title><path id="expand" class="cls-1" d="M4.25,41A4.26,4.26,0,0,1,0,36.75V4.25A4.26,4.26,0,0,1,4.25,0h12.5a1.75,1.75,0,0,1,0,3.5H4.25a.76.76,0,0,0-.75.75v32.5a.76.76,0,0,0,.75.75h32.5a.76.76,0,0,0,.75-.75V24.25a1.75,1.75,0,0,1,3.5,0v12.5A4.26,4.26,0,0,1,36.75,41ZM19,25,37.5,6v7.15a1.75,1.75,0,0,0,3.5,0V1.75l0-.23a1.8,1.8,0,0,0-.35-.84L40.56.59A1.79,1.79,0,0,0,40.2.28,1.91,1.91,0,0,0,39.82.1l-.11,0A1.51,1.51,0,0,0,39.25,0H27.75a1.75,1.75,0,0,0,0,3.5h7.34l-18.59,19a1.69,1.69,0,0,0-.5,1.24A1.72,1.72,0,0,0,16.53,25,1.74,1.74,0,0,0,19,25Z"/></svg>